<svg xmlns="http://www.w3.org/2000/svg" width="86" height="29" viewBox="0 0 86 29" fill="none">
  <path d="M32.3125 12.9688V0.758392H34.6486V12.9688H32.3125Z" fill="#FFFFFF"/>
  <path d="M35.9844 6.87242C35.9844 2.97997 38.8377 0.5 42.0082 0.5C45.2791 0.5 46.9643 2.56664 47.4317 4.54737L45.2627 5.25361C44.9789 4.08262 44.0612 2.79056 42.0082 2.79056C40.2397 2.79056 38.3703 4.09954 38.3703 6.87242C38.3703 9.47282 40.1388 10.9022 42.0417 10.9022C44.0606 10.9022 45.0451 9.54181 45.3623 8.40532L47.5149 9.07706C47.0646 10.9543 45.3623 13.2273 42.0417 13.2273C38.738 13.2273 35.9844 10.7642 35.9844 6.87242Z" fill="#FFFFFF"/>
  <path d="M55.9925 10.179H51.1866L50.202 12.9688H47.7656L52.3042 0.758392H54.9739L59.4797 12.9688H56.9764L55.9925 10.179ZM51.9541 8.0089H55.225L53.5896 3.39328L51.9541 8.0089Z" fill="#FFFFFF"/>
  <path d="M60.998 12.9688V0.758392H63.3008V10.6952H68.5741V12.9682H60.998V12.9688Z" fill="#FFFFFF"/>
  <path d="M70.3438 12.9688V0.758392H72.6799V12.9688H70.3438Z" fill="#FFFFFF"/>
  <path d="M82.4242 10.179H77.6182L76.6337 12.9688H74.1973L78.7365 0.758392H81.4062L85.912 12.9688H83.4087L82.4242 10.179ZM78.3858 8.0089H81.6566L80.0212 3.39328L78.3858 8.0089Z" fill="#FFFFFF"/>
  <path d="M21.874 0.5H16.404H10.9355H5.4685H0V6.1V11.7V17.3015V22.9V28.5H5.4685H10.9355H16.404H21.874H27.341V22.9H21.874H16.404V17.3V11.7V6.1H21.874V11.7V17.3015H27.341V11.7V6.1V0.5H21.874ZM10.9355 11.7V17.3015V22.9H5.4685V17.3V11.7V6.1H10.9355V11.7Z" fill="#CC3239"/>
  <path d="M32.3125 28.2416V16.0318H34.6151V25.9687H39.8881V28.2416H32.3125Z" fill="#FFFFFF"/>
  <path d="M49.1659 25.4519H44.3602L43.3757 28.2416H40.9395L45.4784 16.0318H48.148L52.6536 28.2416H50.1504L49.1659 25.4519ZM45.1278 23.2819H48.3984L46.7631 18.6665L45.1278 23.2819Z" fill="#FFFFFF"/>
  <path d="M58.427 16.0318C60.7296 16.0318 62.0313 17.4266 62.0313 19.3213C62.0313 20.5781 61.2972 21.5942 60.3127 21.9391C61.4644 22.232 62.3984 23.317 62.3984 24.8323C62.3984 26.8129 60.9636 28.2422 58.7443 28.2422H54.1719V16.0318H58.427ZM58.0764 21.0774C59.1277 21.0774 59.7615 20.4747 59.7615 19.5446C59.7615 18.6145 59.1775 18.0293 58.0593 18.0293H56.441V21.0774H58.0764ZM58.3097 26.261C59.4279 26.261 60.0952 25.6582 60.0952 24.6767C60.0952 23.7121 59.4941 23.0404 58.3432 23.0404H56.441V26.261H58.3097Z" fill="#FFFFFF"/>
  <path d="M70.2406 19.5966C70.124 18.9249 69.5898 17.8744 68.0881 17.8744C66.97 17.8744 66.2359 18.6151 66.2359 19.4242C66.2359 20.0959 66.6527 20.6296 67.5205 20.8021L69.1729 21.1295C71.3254 21.5603 72.477 23.0066 72.477 24.7288C72.477 26.606 70.9583 28.5 68.2054 28.5C65.0685 28.5 63.6835 26.4165 63.5 24.6768L65.6361 24.091C65.7364 25.2964 66.5537 26.3814 68.2225 26.3814C69.4573 26.3814 70.1416 25.7442 70.1416 24.8831C70.1416 24.1769 69.6245 23.6262 67.5205 23.4362L67.0551 23.0919C65.1694 22.6955 63.9516 21.4386 63.9516 19.596C63.9516 17.426 65.8373 15.7727 68.073 15.7727C70.9432 15.7727 72.0444 17.564 72.3118 18.9412L70.2406 19.5966Z" fill="#FFFFFF"/>
</svg>
